<?xml version="1.0" standalone="no"?>
<!DOCTYPE svg PUBLIC "-//W3C//DTD SVG 20010904//EN"
 "http://www.w3.org/TR/2001/REC-SVG-20010904/DTD/svg10.dtd">
<svg version="1.0" xmlns="http://www.w3.org/2000/svg"
 width="256.000000pt" height="256.000000pt" viewBox="0 0 256.000000 256.000000"
 preserveAspectRatio="xMidYMid meet">

<g transform="translate(0.000000,256.000000) scale(0.100000,-0.100000)"
fill="#000000" stroke="none">
<path d="M839 2546 c-69 -24 -105 -56 -350 -303 -224 -225 -248 -253 -268
-306 -21 -59 -21 -59 -19 -947 3 -880 3 -889 24 -916 11 -15 33 -37 48 -48 27
-21 35 -21 994 -23 772 -1 956 1 912 11 -71 15 -141 56 -181 106 l-32 40 -804
0 -803 0 0 839 0 840 229 3 c255 3 258 4 309 78 21 32 22 41 22 256 l0 224
640 0 640 0 0 -886 c0 -881 0 -886 20 -881 11 3 47 0 80 -7 l60 -13 -2 923
c-3 914 -3 923 -24 950 -11 15 -33 37 -48 48 -27 21 -38 21 -719 23 -548 2
-700 0 -728 -11z m-79 -406 l0 -140 -142 0 -143 0 140 140 c77 77 141 140 142
140 2 0 3 -63 3 -140z"/>
<path d="M1119 2067 c-44 -34 -47 -89 -7 -127 21 -19 34 -20 404 -20 210 0
390 3 399 6 23 9 48 62 41 90 -4 13 -16 33 -28 44 -21 19 -34 20 -407 20 -288
-1 -390 -4 -402 -13z"/>
<path d="M639 1667 c-44 -34 -47 -89 -7 -127 21 -20 33 -20 644 -20 342 0 630
3 639 6 23 9 48 62 41 90 -4 13 -16 33 -28 44 -21 20 -33 20 -647 20 -476 -1
-630 -4 -642 -13z"/>
<path d="M652 1384 l-22 -15 0 -369 c0 -322 2 -371 16 -384 13 -14 52 -16 273
-16 275 0 281 1 281 50 0 48 -9 50 -242 50 l-218 0 0 125 0 125 158 0 c147 0
160 2 177 20 15 16 17 26 9 48 l-9 27 -168 3 -167 2 0 125 0 125 228 2 227 3
3 35 c6 58 -2 60 -278 60 -206 0 -249 -3 -268 -16z"/>
<path d="M1310 1380 c-25 -25 -25 -42 -2 -63 16 -14 52 -17 251 -19 l232 -3
-43 -55 c-24 -31 -62 -78 -85 -105 -101 -119 -376 -460 -380 -472 -3 -7 2 -24
11 -38 l16 -25 299 0 c326 0 326 0 319 57 l-3 28 -248 3 c-148 1 -247 6 -245
12 2 5 109 138 238 296 249 305 270 332 270 352 0 6 -9 21 -20 32 -19 19 -33
20 -305 20 -272 0 -286 -1 -305 -20z"/>
<path d="M639 467 c-44 -34 -47 -89 -7 -127 21 -20 33 -20 649 -20 491 0 630
3 636 13 4 6 13 34 19 60 10 44 10 50 -9 68 -20 18 -43 19 -646 19 -476 -1
-630 -4 -642 -13z"/>
</g>
</svg>
